<?xml version="1.0" encoding="UTF-8"?>
<svg xmlns="http://www.w3.org/2000/svg" xmlns:xlink="http://www.w3.org/1999/xlink" width="256" height="256" viewBox="0 0 256 256">
<path fill-rule="nonzero" fill="rgb(0%, 0%, 0%)" fill-opacity="1" d="M 152 24 C 152 10.746094 141.253906 0 128 0 C 114.746094 0 104 10.746094 104 24 C 104 37.253906 114.746094 48 128 48 C 141.253906 48 152 37.253906 152 24 Z M 152 232 C 152 218.746094 141.253906 208 128 208 C 114.746094 208 104 218.746094 104 232 C 104 245.253906 114.746094 256 128 256 C 141.253906 256 152 245.253906 152 232 Z M 24 152 C 37.253906 152 48 141.253906 48 128 C 48 114.746094 37.253906 104 24 104 C 10.746094 104 0 114.746094 0 128 C 0 141.253906 10.746094 152 24 152 Z M 256 128 C 256 114.746094 245.253906 104 232 104 C 218.746094 104 208 114.746094 208 128 C 208 141.253906 218.746094 152 232 152 C 245.253906 152 256 141.253906 256 128 Z M 71.449219 218.5 C 80.824219 209.125 80.824219 193.925781 71.449219 184.550781 C 62.074219 175.175781 46.875 175.175781 37.5 184.550781 C 28.125 193.925781 28.125 209.125 37.5 218.5 C 46.875 227.875 62.074219 227.875 71.449219 218.5 Z M 71.449219 71.398438 C 77.820312 65.402344 80.421875 56.410156 78.238281 47.9375 C 76.054688 39.460938 69.429688 32.847656 60.953125 30.675781 C 52.476562 28.503906 43.488281 31.121094 37.5 37.5 C 28.125 46.875 28.125 62.074219 37.5 71.449219 C 46.875 80.824219 62.074219 80.824219 71.449219 71.449219 Z M 184.550781 218.5 C 193.925781 227.875 209.125 227.875 218.5 218.5 C 227.875 209.125 227.875 193.925781 218.5 184.550781 C 209.125 175.175781 193.925781 175.175781 184.550781 184.550781 C 175.175781 193.925781 175.175781 209.125 184.550781 218.5 Z M 184.550781 218.5 "/>
</svg>
